{"glyphs":{"0":{"ha":1092,"x_min":0,"x_max":0,"o":"m 785 734 l 785 367 l 802 367 l 880 445 b 920 404 907 418 893 431 l 771 254 l 307 254 l 307 621 l 290 621 l 212 543 l 172 584 l 321 734 z m 876 987 l 216 987 l 54 825 l 54 604 l 163 494 l 54 385 l 54 163 l 216 0 l 876 0 l 1038 163 l 1038 385 l 928 494 l 1038 604 l 1038 825 z "},"1":{"ha":1092,"x_min":0,"x_max":0,"o":"m 420 254 l 54 254 l 54 0 l 1038 0 l 1038 254 l 672 254 l 672 788 l 473 987 l 54 987 l 54 734 l 338 734 l 483 880 l 524 839 l 420 734 z "},"2":{"ha":1092,"x_min":0,"x_max":0,"o":"m 697 621 l 290 621 b 54 385 133 463 211 542 l 54 0 l 1038 0 l 1038 254 l 321 254 b 172 404 221 354 271 304 l 212 445 l 290 367 l 802 367 l 1038 604 l 1038 825 l 876 987 l 54 987 l 54 734 l 785 734 l 785 709 z "},"3":{"ha":1092,"x_min":0,"x_max":0,"o":"m 252 621 l 252 367 l 802 367 l 880 445 b 920 404 907 418 893 431 l 771 254 l 54 254 l 54 0 l 876 0 l 1038 163 l 1038 385 l 928 494 l 1038 604 l 1038 825 l 876 987 l 54 987 l 54 734 l 785 734 l 785 709 l 697 621 z "},"4":{"ha":1092,"x_min":0,"x_max":0,"o":"m 54 383 l 54 163 l 785 163 l 785 0 l 1038 0 l 1038 547 b 928 656 965 620 1001 583 l 1038 766 l 1038 987 l 656 987 z m 920 566 l 771 416 l 445 416 l 785 758 l 785 530 l 802 530 l 880 607 z "},"5":{"ha":1092,"x_min":0,"x_max":0,"o":"m 698 367 l 785 279 l 785 254 l 54 254 l 54 0 l 876 0 l 1038 163 l 1038 385 b 802 621 881 542 959 463 l 290 621 l 212 543 l 172 584 l 321 734 l 1038 734 l 1038 987 l 54 987 l 54 604 l 290 367 z "},"6":{"ha":1092,"x_min":0,"x_max":0,"o":"m 788 621 l 394 621 l 307 709 l 307 734 l 1038 734 l 1038 987 l 216 987 l 54 825 l 54 604 l 163 494 l 54 385 l 54 163 l 216 0 l 1038 0 l 1038 370 z m 212 445 l 290 367 l 684 367 l 796 254 l 321 254 l 172 404 z "},"7":{"ha":1092,"x_min":0,"x_max":0,"o":"m 54 163 l 54 0 l 250 0 l 615 367 l 802 367 l 1038 604 l 1038 825 l 876 987 l 54 987 l 54 734 l 771 734 l 920 584 l 880 543 l 802 621 l 511 621 z "},"8":{"ha":1092,"x_min":0,"x_max":0,"o":"m 290 621 l 212 543 l 172 584 b 321 734 271 684 221 634 l 785 734 l 785 709 l 697 621 z m 163 494 l 54 385 l 54 163 l 216 0 l 876 0 l 1038 163 l 1038 385 l 928 494 l 1038 604 l 1038 825 l 876 987 l 216 987 l 54 825 l 54 604 z m 307 254 l 307 279 l 394 367 l 802 367 l 880 445 l 920 404 l 771 254 z "},"9":{"ha":1092,"x_min":0,"x_max":0,"o":"m 304 367 l 698 367 l 785 279 l 785 254 l 54 254 l 54 0 l 876 0 l 1038 163 l 1038 385 l 928 494 l 1038 604 l 1038 825 l 876 987 l 54 987 l 54 618 b 304 367 220 450 138 534 z m 920 584 l 880 543 l 802 621 l 408 621 l 296 734 l 771 734 z "},"\u0000":{"ha":985,"x_min":0,"x_max":0,"o":"m 863 0 l 863 987 l 122 987 l 122 0 z m 244 865 l 741 865 l 741 122 l 244 122 z "},"\u001d":{"ha":985,"x_min":0,"x_max":0,"o":"m 863 0 l 863 987 l 122 987 l 122 0 z m 244 865 l 741 865 l 741 122 l 244 122 z "}," ":{"ha":543,"x_min":0,"x_max":0,"o":""}," ":{"ha":543,"x_min":0,"x_max":0,"o":""},"!":{"ha":361,"x_min":0,"x_max":0,"o":"m 307 987 l 54 987 l 54 734 b 110 254 92 414 73 574 l 252 254 b 307 734 289 574 270 414 z m 54 0 l 307 0 l 307 163 l 54 163 z "},"\"":{"ha":608,"x_min":0,"x_max":0,"o":"m 266 989 l 54 989 l 54 696 l 184 566 l 266 566 z m 554 989 l 342 989 l 342 696 l 472 566 l 554 566 z "},"#":{"ha":1094,"x_min":0,"x_max":0,"o":"m 439 989 l 184 989 l 184 799 l 54 799 l 54 621 l 184 621 l 184 567 b 382 368 250 500 317 434 l 54 368 l 54 189 l 184 189 l 184 -1 l 439 -1 l 439 189 l 663 189 l 663 -1 l 918 -1 l 918 189 l 1040 189 l 1040 368 l 918 368 l 918 421 l 719 621 l 1040 621 l 1040 799 l 918 799 l 918 989 l 663 989 l 663 799 l 439 799 z m 663 368 l 439 368 l 439 621 l 663 621 z "},"$":{"ha":1092,"x_min":0,"x_max":0,"o":"m 1038 734 l 1038 987 l 651 987 l 651 1078 l 571 1078 l 571 987 l 521 987 l 521 1078 l 441 1078 l 441 987 l 216 987 l 54 825 l 54 604 l 290 367 l 441 367 l 441 254 l 321 254 l 208 367 l 54 367 l 54 163 l 216 0 l 441 0 l 441 -84 l 521 -84 l 521 0 l 571 0 l 571 -84 l 651 -84 l 651 0 l 1038 0 l 1038 385 l 802 621 l 651 621 l 651 734 z m 571 734 l 571 621 l 521 621 l 521 734 z m 651 367 l 698 367 l 785 279 l 785 254 l 651 254 z m 571 254 l 521 254 l 521 367 l 571 367 z m 441 734 l 441 621 l 290 621 l 212 543 l 172 584 l 321 734 z "},"%":{"ha":1092,"x_min":0,"x_max":0,"o":"m 104 0 l 1038 938 l 1038 987 l 988 987 l 54 50 l 54 0 z m 916 330 l 916 165 l 930 165 l 963 198 l 976 185 l 913 122 l 709 122 l 709 287 l 696 287 b 663 254 674 264 685 275 l 650 267 l 713 330 z m 588 376 l 588 273 l 635 226 l 588 178 l 588 75 l 663 0 l 963 0 l 1038 75 l 1038 178 l 990 226 l 1038 273 l 1038 376 l 963 452 l 663 452 z m 382 866 l 382 701 l 395 701 l 429 734 l 441 722 l 378 658 l 176 658 l 176 823 l 162 823 b 129 789 140 801 151 812 l 116 802 l 179 866 z m 54 913 l 54 810 b 102 762 86 778 70 793 b 54 714 70 730 86 746 l 54 612 b 129 536 104 562 79 587 l 429 536 l 504 612 l 504 714 l 456 762 l 504 810 l 504 913 l 429 987 l 129 987 z "},"&":{"ha":1092,"x_min":0,"x_max":0,"o":"m 307 254 l 307 279 l 394 367 l 785 367 l 785 254 z m 785 621 l 290 621 l 212 543 l 172 584 l 321 734 l 1038 734 l 1038 987 l 216 987 l 54 825 l 54 604 l 163 494 l 54 385 l 54 163 l 216 0 l 876 0 l 1038 163 l 1038 676 l 785 676 z "},"'":{"ha":320,"x_min":0,"x_max":0,"o":"m 265 987 l 265 567 l 184 567 l 55 696 l 55 987 z m 264 987 l 56 987 l 56 696 l 184 568 l 264 568 z m 54 989 l 54 696 l 184 566 l 266 566 l 266 989 z "},"(":{"ha":530,"x_min":0,"x_max":0,"o":"m 228 -254 l 475 -254 b 307 429 357 -41 307 180 b 475 1112 307 678 357 899 l 228 1112 b 54 429 117 938 54 697 b 228 -254 54 161 117 -77 z "},")":{"ha":530,"x_min":0,"x_max":0,"o":"m 302 -254 b 475 429 413 -77 475 161 b 302 1112 475 697 413 938 l 54 1112 b 222 429 172 899 222 678 b 54 -254 222 180 172 -41 z "},"*":{"ha":475,"x_min":0,"x_max":0,"o":"m 337 810 l 421 857 l 372 943 l 286 892 l 286 987 l 190 987 l 191 892 l 104 943 b 54 857 71 885 87 914 l 140 810 l 54 763 b 104 677 87 705 71 734 l 191 727 l 190 631 l 286 631 l 286 728 l 372 677 b 421 763 405 734 389 705 z "},"+":{"ha":814,"x_min":0,"x_max":0,"o":"m 54 402 l 320 402 l 320 140 l 494 140 l 494 402 l 760 402 l 760 586 l 494 586 l 494 848 l 320 848 l 320 586 l 54 586 z "},",":{"ha":361,"x_min":0,"x_max":0,"o":"m 307 254 l 54 254 l 54 0 l 159 0 l 54 -105 l 54 -210 l 172 -210 b 307 -74 262 -119 216 -165 z "},"-":{"ha":753,"x_min":0,"x_max":0,"o":"m 54 254 l 699 254 l 699 459 l 54 459 z "},"­":{"ha":753,"x_min":0,"x_max":0,"o":"m 54 254 l 699 254 l 699 459 l 54 459 z "},".":{"ha":361,"x_min":0,"x_max":0,"o":"m 307 254 l 54 254 l 54 0 l 307 0 z "},"/":{"ha":779,"x_min":0,"x_max":0,"o":"m 491 987 l 54 0 l 288 0 l 725 987 z "},":":{"ha":361,"x_min":0,"x_max":0,"o":"m 307 734 l 54 734 l 54 480 l 307 480 z m 307 254 l 54 254 l 54 0 l 307 0 z "},";":{"ha":361,"x_min":0,"x_max":0,"o":"m 307 734 l 54 734 l 54 480 l 307 480 z m 307 254 l 54 254 l 54 0 l 159 0 b 54 -105 90 -70 124 -35 l 54 -210 l 172 -210 l 307 -74 z "},"<":{"ha":739,"x_min":0,"x_max":0,"o":"m 330 494 b 684 640 566 591 448 543 l 684 837 l 54 561 l 54 427 b 684 151 474 243 264 335 l 684 347 z "},"=":{"ha":814,"x_min":0,"x_max":0,"o":"m 54 536 l 760 536 l 760 720 l 54 720 z m 54 269 l 760 269 l 760 452 l 54 452 z "},">":{"ha":739,"x_min":0,"x_max":0,"o":"m 409 494 l 54 347 l 54 151 b 684 427 474 335 264 243 l 684 561 l 54 837 l 54 640 z "},"?":{"ha":1092,"x_min":0,"x_max":0,"o":"m 54 734 l 771 734 b 920 584 871 634 821 684 l 880 543 l 802 621 l 452 621 l 290 458 l 290 254 l 543 254 l 543 367 l 802 367 l 1038 604 l 1038 825 l 876 987 l 54 987 z m 290 0 l 543 0 l 543 163 l 290 163 z "},"@":{"ha":1478,"x_min":0,"x_max":0,"o":"m 533 439 l 520 439 l 429 347 b 393 382 406 371 417 359 l 513 503 l 945 503 l 945 414 l 752 219 l 533 219 z m 1163 219 l 1163 722 l 458 722 l 315 578 l 315 377 l 387 305 b 315 233 338 257 363 281 l 315 0 l 833 0 l 945 114 l 945 0 l 1423 0 l 1423 987 l 367 987 l 54 674 l 54 0 l 258 0 l 258 589 l 451 783 l 1220 783 l 1220 219 z "},"[":{"ha":505,"x_min":0,"x_max":0,"o":"m 54 1112 l 54 -254 l 450 -254 l 450 -99 l 307 -99 l 307 957 l 450 957 l 450 1112 z "},"\\":{"ha":779,"x_min":0,"x_max":0,"o":"m 288 987 l 54 987 b 491 0 346 330 200 659 l 725 0 z "},"]":{"ha":505,"x_min":0,"x_max":0,"o":"m 450 1112 l 54 1112 l 54 957 l 197 957 l 197 -99 l 54 -99 l 54 -254 l 450 -254 z "},"^":{"ha":591,"x_min":0,"x_max":0,"o":"m 279 861 l 313 861 l 379 631 l 536 631 l 419 987 l 172 987 b 54 631 94 750 132 869 l 212 631 z "},"_":{"ha":924,"x_min":0,"x_max":0,"o":"m 54 -216 l 869 -216 l 869 -33 l 54 -33 z "},"`":{"ha":515,"x_min":0,"x_max":0,"o":"m 461 764 l 304 987 l 54 987 b 279 764 203 839 129 913 z "},"´":{"ha":515,"x_min":0,"x_max":0,"o":"m 54 764 l 237 764 l 461 987 l 212 987 z "},"A":{"ha":1092,"x_min":0,"x_max":0,"o":"m 785 0 l 1038 0 l 1038 385 l 928 494 l 1038 604 l 1038 825 l 876 987 l 389 987 l 54 652 l 54 0 l 307 0 l 307 367 l 785 367 z m 494 734 l 771 734 l 920 584 l 880 543 l 802 621 l 381 621 b 494 734 456 696 418 659 z "},"B":{"ha":1092,"x_min":0,"x_max":0,"o":"m 307 254 l 307 367 l 802 367 l 880 445 l 920 404 l 771 254 z m 307 621 l 307 734 l 785 734 l 785 709 b 698 621 727 650 755 680 z m 876 987 l 54 987 l 54 0 l 876 0 l 1038 163 l 1038 385 l 928 494 l 1038 604 l 1038 825 z "},"C":{"ha":1092,"x_min":0,"x_max":0,"o":"m 785 734 l 785 621 l 1038 621 l 1038 987 l 216 987 l 54 825 l 54 604 l 163 494 l 54 385 l 54 163 l 216 0 l 1038 0 l 1038 254 l 307 254 l 307 621 l 290 621 l 212 543 l 172 584 l 321 734 z "},"D":{"ha":1092,"x_min":0,"x_max":0,"o":"m 307 734 l 771 734 l 920 584 l 880 543 l 802 621 l 785 621 l 785 254 l 307 254 z m 54 0 l 876 0 l 1038 163 l 1038 385 l 928 494 l 1038 604 l 1038 825 l 876 987 l 54 987 z "},"E":{"ha":1092,"x_min":0,"x_max":0,"o":"m 1038 367 l 1038 621 l 290 621 l 212 543 l 172 584 b 321 734 271 684 221 634 l 947 734 l 1038 825 l 1038 987 l 216 987 l 54 825 l 54 604 b 163 494 127 530 91 567 l 54 385 l 54 163 l 216 0 l 1038 0 l 1038 163 l 947 254 l 307 254 l 307 279 l 394 367 z "},"F":{"ha":1092,"x_min":0,"x_max":0,"o":"m 947 367 l 1038 458 l 1038 621 l 290 621 l 212 543 l 172 584 l 321 734 l 947 734 l 1038 825 l 1038 987 l 216 987 l 54 825 l 54 604 l 163 494 l 54 385 l 54 0 l 307 0 l 307 279 l 394 367 z "},"G":{"ha":1092,"x_min":0,"x_max":0,"o":"m 947 734 l 1038 825 l 1038 987 l 216 987 l 54 825 l 54 604 l 163 494 l 54 385 l 54 163 l 216 0 l 1038 0 l 1038 385 l 802 621 l 420 621 l 420 367 l 785 367 l 785 254 l 307 254 l 307 621 l 290 621 l 212 543 l 172 584 l 321 734 z "},"H":{"ha":1092,"x_min":0,"x_max":0,"o":"m 307 720 l 307 987 l 54 987 l 54 604 l 163 494 l 54 385 l 54 0 l 307 0 l 307 367 l 785 367 l 785 0 l 1038 0 l 1038 987 l 785 987 l 785 621 l 290 621 l 212 543 l 172 584 b 307 720 262 675 217 629 z "},"I":{"ha":1092,"x_min":0,"x_max":0,"o":"m 1038 734 l 1038 987 l 672 987 l 573 888 l 473 987 l 54 987 l 54 734 l 338 734 l 483 880 l 524 839 l 420 734 l 420 254 l 54 254 l 54 0 l 1038 0 l 1038 254 l 672 254 l 672 734 z "},"J":{"ha":1092,"x_min":0,"x_max":0,"o":"m 307 254 l 307 385 l 54 385 l 54 0 l 876 0 l 1038 163 l 1038 385 l 928 494 l 1038 604 l 1038 987 l 54 987 l 54 734 l 785 734 l 785 367 l 802 367 l 880 445 b 920 404 907 418 893 431 b 771 254 821 304 871 354 z "},"K":{"ha":1092,"x_min":0,"x_max":0,"o":"m 307 720 l 307 987 l 54 987 l 54 604 l 163 494 l 54 385 l 54 0 l 307 0 l 307 367 l 477 367 l 842 0 l 1038 0 l 1038 163 l 708 494 l 1038 825 l 1038 987 l 842 987 b 477 621 598 743 720 865 l 290 621 l 212 543 l 172 584 z "},"L":{"ha":1092,"x_min":0,"x_max":0,"o":"m 1038 254 l 321 254 b 172 404 221 354 271 304 b 212 445 199 431 185 418 l 290 367 l 307 367 l 307 987 l 54 987 l 54 604 l 163 494 l 54 385 l 54 163 l 216 0 l 1038 0 z "},"M":{"ha":1092,"x_min":0,"x_max":0,"o":"m 785 0 l 1038 0 l 1038 987 l 680 987 l 546 854 l 412 987 l 54 987 l 54 604 l 163 494 l 54 385 l 54 0 l 307 0 l 307 621 l 290 621 l 212 543 l 172 584 l 314 728 l 420 622 l 420 0 l 672 0 l 672 622 l 785 734 z "},"N":{"ha":1092,"x_min":0,"x_max":0,"o":"m 336 987 l 54 987 l 54 0 l 307 0 l 307 657 l 785 177 l 785 0 l 1038 0 l 1038 283 l 928 392 l 1038 501 l 1038 987 l 785 987 l 785 618 l 920 482 l 880 441 z "},"O":{"ha":1092,"x_min":0,"x_max":0,"o":"m 785 734 l 785 254 l 307 254 l 307 621 l 290 621 l 212 543 l 172 584 b 321 734 271 684 221 634 z m 876 0 l 1038 163 l 1038 987 l 216 987 l 54 825 l 54 604 b 163 494 127 530 91 567 l 54 385 l 54 0 z "},"P":{"ha":1092,"x_min":0,"x_max":0,"o":"m 788 367 b 1038 618 954 534 871 450 l 1038 987 l 216 987 l 54 825 l 54 604 l 163 494 l 54 385 l 54 0 l 307 0 l 307 279 l 394 367 z m 212 543 l 172 584 l 321 734 l 796 734 l 684 621 l 290 621 z "},"Q":{"ha":1092,"x_min":0,"x_max":0,"o":"m 785 734 l 785 254 l 672 254 l 672 490 l 655 490 l 420 254 l 307 254 l 307 621 l 290 621 l 212 543 l 172 584 l 321 734 z m 672 -130 l 672 0 l 876 0 l 1038 163 l 1038 987 l 216 987 l 54 825 l 54 604 b 163 494 127 530 91 567 l 54 385 l 54 0 l 420 0 l 420 -130 z "},"R":{"ha":1092,"x_min":0,"x_max":0,"o":"m 477 367 l 842 0 l 1038 0 l 1038 163 b 811 390 886 314 962 238 l 1038 618 l 1038 987 l 216 987 l 54 825 l 54 604 l 163 494 l 54 385 l 54 0 l 307 0 l 307 279 l 394 367 z m 212 543 l 172 584 b 321 734 271 684 221 634 l 796 734 l 684 621 l 290 621 z "},"S":{"ha":1092,"x_min":0,"x_max":0,"o":"m 1038 734 l 1038 987 l 216 987 l 54 825 l 54 604 l 290 367 l 698 367 l 785 279 l 785 254 l 321 254 l 208 367 l 54 367 l 54 163 l 216 0 l 1038 0 l 1038 385 l 802 621 l 290 621 l 212 543 l 172 584 l 321 734 z "},"T":{"ha":1092,"x_min":0,"x_max":0,"o":"m 1038 734 l 1038 987 l 672 987 l 573 888 l 473 987 l 54 987 l 54 734 l 338 734 l 483 880 l 524 839 l 420 734 l 420 0 l 672 0 l 672 646 l 760 734 z "},"U":{"ha":1092,"x_min":0,"x_max":0,"o":"m 785 254 l 321 254 l 172 404 b 212 445 199 431 185 418 l 290 367 l 307 367 l 307 987 l 54 987 l 54 604 l 163 494 l 54 385 l 54 163 l 216 0 l 1038 0 l 1038 987 l 785 987 z "},"V":{"ha":1092,"x_min":0,"x_max":0,"o":"m 598 254 l 321 254 l 172 404 l 212 445 l 290 367 l 307 367 l 307 987 l 54 987 l 54 604 l 163 494 l 54 385 l 54 163 l 216 0 l 703 0 l 1038 336 l 1038 987 l 785 987 l 785 441 z "},"W":{"ha":1092,"x_min":0,"x_max":0,"o":"m 314 260 b 172 404 219 356 267 309 l 212 445 l 290 367 l 307 367 l 307 987 l 54 987 l 54 604 l 163 494 l 54 385 l 54 163 l 216 0 l 412 0 l 546 134 l 680 0 l 876 0 l 1038 163 l 1038 987 l 785 987 l 785 254 l 672 366 l 672 987 l 420 987 l 420 366 z "},"X":{"ha":1092,"x_min":0,"x_max":0,"o":"m 698 621 l 394 621 b 307 709 336 680 366 650 l 307 987 l 54 987 l 54 604 l 163 494 l 54 385 l 54 0 l 307 0 l 307 268 l 172 404 b 212 445 199 431 185 418 l 290 367 l 698 367 l 785 279 l 785 0 l 1038 0 l 1038 385 l 928 494 l 1038 604 l 1038 987 l 785 987 l 785 709 z "},"Y":{"ha":1092,"x_min":0,"x_max":0,"o":"m 802 367 l 1038 604 l 1038 987 l 785 987 l 785 709 l 697 621 l 290 621 l 212 543 l 172 584 l 307 720 l 307 987 l 54 987 l 54 604 l 290 367 l 420 367 l 420 0 l 672 0 l 672 367 z "},"Z":{"ha":1092,"x_min":0,"x_max":0,"o":"m 698 621 l 290 621 l 54 385 l 54 0 l 1038 0 l 1038 254 l 321 254 l 172 404 l 212 445 l 290 367 l 802 367 l 1038 604 l 1038 987 l 54 987 l 54 734 l 785 734 l 785 709 z "},"a":{"ha":1092,"x_min":0,"x_max":0,"o":"m 307 406 l 292 406 b 186 300 222 335 257 370 l 146 340 l 285 480 l 785 480 l 562 254 l 307 254 z m 54 0 l 654 0 l 785 132 l 785 0 l 1038 0 l 1038 734 l 220 734 l 54 567 l 54 334 l 137 250 l 54 167 z "},"b":{"ha":1092,"x_min":0,"x_max":0,"o":"m 307 987 l 54 987 l 54 734 l 137 650 l 54 567 l 54 0 l 1038 0 l 1038 497 b 802 734 881 655 959 576 l 307 734 z m 307 254 l 307 398 l 146 560 l 186 601 l 307 480 l 698 480 b 785 392 755 422 726 451 l 785 254 z "},"c":{"ha":1092,"x_min":0,"x_max":0,"o":"m 307 480 l 701 480 l 813 367 l 1038 367 l 1038 572 l 876 734 l 54 734 l 54 567 l 137 484 l 54 400 l 54 167 b 220 0 165 56 110 111 l 1038 0 l 1038 254 l 284 254 b 146 393 192 347 238 300 l 186 435 b 292 328 257 363 222 399 l 307 328 z "},"d":{"ha":1092,"x_min":0,"x_max":0,"o":"m 785 987 l 785 734 l 290 734 b 54 497 133 576 211 655 l 54 0 l 1038 0 l 1038 567 l 955 650 l 1038 734 l 1038 987 z m 785 254 l 307 254 l 307 392 b 394 480 366 451 336 422 l 785 480 l 905 601 l 946 560 l 785 398 z "},"e":{"ha":1092,"x_min":0,"x_max":0,"o":"m 307 254 l 307 406 l 292 406 b 186 300 222 335 257 370 l 146 340 l 284 480 l 680 480 b 455 254 530 330 605 405 z m 812 254 b 1038 480 962 405 888 330 l 1038 734 l 220 734 l 54 567 l 54 334 l 137 250 l 54 167 l 54 0 l 1038 0 l 1038 254 z "},"f":{"ha":1092,"x_min":0,"x_max":0,"o":"m 307 -254 l 307 0 l 1038 0 l 1038 254 l 307 254 l 186 133 l 145 174 b 307 336 253 282 199 228 l 307 480 l 1038 480 l 1038 734 l 220 734 l 54 567 l 54 167 b 137 83 110 111 82 139 l 54 0 l 54 -254 z "},"g":{"ha":1092,"x_min":0,"x_max":0,"o":"m 785 71 l 630 -84 l 630 -254 l 819 -254 l 1038 -34 l 1038 734 l 220 734 l 54 567 l 54 334 b 137 250 110 278 82 306 l 54 167 l 54 0 l 634 0 l 785 153 z m 284 480 l 785 480 l 562 254 l 307 254 l 307 406 l 292 406 l 186 300 l 146 340 b 284 480 238 433 192 387 z "},"h":{"ha":1092,"x_min":0,"x_max":0,"o":"m 307 987 l 54 987 l 54 734 l 137 650 l 54 567 l 54 0 l 307 0 l 307 398 l 145 560 l 186 601 l 307 480 l 697 480 l 785 392 l 785 0 l 1038 0 l 1038 497 b 802 734 881 655 959 576 l 307 734 z "},"i":{"ha":361,"x_min":0,"x_max":0,"o":"m 54 825 l 307 825 l 307 987 l 54 987 z m 307 734 l 167 734 l 54 621 l 54 0 l 307 0 z "},"j":{"ha":1092,"x_min":0,"x_max":0,"o":"m 905 133 b 785 254 825 214 865 173 l 54 254 l 54 0 l 871 0 l 1038 167 l 1038 734 l 54 734 l 54 480 l 785 480 l 785 336 l 946 174 z m 785 825 l 1038 825 l 1038 987 l 785 987 z "},"k":{"ha":1092,"x_min":0,"x_max":0,"o":"m 842 0 l 1038 0 l 1038 163 l 834 367 l 1038 572 l 1038 734 l 842 734 l 606 497 l 296 497 b 186 387 223 424 260 460 l 146 427 l 307 590 l 307 987 l 54 987 l 54 420 l 137 338 l 54 254 l 54 0 l 307 0 l 307 243 l 600 243 z "},"l":{"ha":361,"x_min":0,"x_max":0,"o":"m 307 0 l 307 498 l 296 498 l 186 387 l 145 427 l 307 590 l 307 987 l 54 987 l 54 420 l 137 338 l 54 254 l 54 0 z "},"m":{"ha":1092,"x_min":0,"x_max":0,"o":"m 54 0 l 307 0 l 307 480 l 413 480 l 413 113 l 525 0 l 679 0 l 679 480 l 807 480 l 946 340 l 905 300 b 800 406 835 370 870 335 l 785 406 l 785 0 l 1038 0 l 1038 167 l 955 250 l 1038 334 l 1038 567 l 871 734 l 54 734 z "},"n":{"ha":1092,"x_min":0,"x_max":0,"o":"m 54 0 l 307 0 l 307 480 l 808 480 l 946 340 l 905 300 b 800 406 835 370 870 335 l 785 406 l 785 0 l 1038 0 l 1038 167 l 955 250 l 1038 334 l 1038 567 l 871 734 l 54 734 z "},"o":{"ha":1092,"x_min":0,"x_max":0,"o":"m 307 254 l 307 406 l 292 406 b 186 300 222 335 257 370 l 146 340 l 285 480 l 785 480 l 785 338 l 701 254 z m 1038 734 l 220 734 l 54 567 l 54 334 l 137 250 l 54 167 l 54 0 l 876 0 l 1038 163 z "},"p":{"ha":1092,"x_min":0,"x_max":0,"o":"m 307 -254 l 307 0 l 802 0 l 1038 237 l 1038 734 l 220 734 l 54 567 l 54 167 l 137 83 b 54 0 82 28 110 56 l 54 -254 z m 307 480 l 785 480 l 785 342 l 698 254 l 307 254 b 186 133 227 173 267 214 l 146 174 l 307 336 z "},"q":{"ha":1092,"x_min":0,"x_max":0,"o":"m 785 -254 l 1038 -254 l 1038 0 l 955 83 l 1038 167 l 1038 734 l 290 734 l 54 497 l 54 0 l 785 0 z m 905 133 l 785 254 l 307 254 l 307 392 b 394 480 366 451 336 422 l 785 480 l 785 336 l 946 174 z "},"r":{"ha":1092,"x_min":0,"x_max":0,"o":"m 186 601 l 307 480 l 771 480 b 884 367 846 405 808 442 l 1038 367 l 1038 572 b 876 734 930 680 984 625 l 220 734 l 54 567 l 54 0 l 307 0 l 307 398 l 146 560 z "},"s":{"ha":1092,"x_min":0,"x_max":0,"o":"m 1038 480 l 1038 734 l 278 734 l 113 568 l 426 254 l 321 254 l 208 367 l 54 367 l 54 163 l 216 0 l 1038 0 l 1038 254 l 783 254 l 411 627 l 452 669 l 640 480 z "},"t":{"ha":1092,"x_min":0,"x_max":0,"o":"m 307 987 l 54 987 l 54 734 l 137 650 b 54 567 82 595 110 623 l 54 167 l 220 0 l 1038 0 l 1038 254 l 307 254 l 307 398 l 146 560 l 186 601 b 307 480 267 520 227 561 l 1038 480 l 1038 734 l 307 734 z "},"u":{"ha":1092,"x_min":0,"x_max":0,"o":"m 1038 734 l 785 734 l 785 254 l 284 254 b 145 393 192 347 238 300 l 186 435 b 292 328 257 363 222 399 l 307 328 l 307 734 l 54 734 l 54 567 b 137 484 110 511 82 539 l 54 400 l 54 167 l 220 0 l 1038 0 z "},"v":{"ha":1092,"x_min":0,"x_max":0,"o":"m 1038 734 l 785 734 l 785 406 l 634 254 l 284 254 b 145 393 192 347 238 300 l 186 435 b 292 328 257 363 222 399 l 307 328 l 307 734 l 54 734 l 54 567 b 137 484 110 511 82 539 l 54 400 l 54 167 l 220 0 l 739 0 l 1038 300 z "},"w":{"ha":1092,"x_min":0,"x_max":0,"o":"m 672 734 l 420 734 l 420 254 l 285 254 b 145 393 192 347 238 300 l 186 435 l 292 328 l 307 328 l 307 734 l 54 734 l 54 567 l 137 484 b 54 400 82 428 110 456 l 54 167 l 220 0 l 474 0 b 546 72 522 48 498 24 l 618 0 l 871 0 b 1038 167 982 111 927 56 l 1038 734 l 785 734 l 785 254 l 672 254 z "},"x":{"ha":1094,"x_min":0,"x_max":0,"o":"m 55 283 l 55 0 l 308 0 l 308 115 b 146 277 200 222 254 169 b 186 317 173 304 160 290 l 264 239 l 724 239 l 785 178 l 785 -1 l 1040 -1 l 1040 284 l 957 367 l 1040 450 l 1040 734 l 785 734 l 785 556 l 724 495 l 370 495 l 309 556 l 309 734 l 54 734 l 54 450 l 138 366 z "},"y":{"ha":1092,"x_min":0,"x_max":0,"o":"m 54 400 l 54 167 l 220 0 l 634 0 l 785 153 l 785 71 b 630 -84 682 -33 733 19 l 630 -254 l 819 -254 l 1038 -34 l 1038 734 l 785 734 l 785 480 l 561 254 l 284 254 b 145 393 192 347 238 300 l 186 435 b 292 328 257 363 222 399 l 307 328 l 307 734 l 54 734 l 54 567 b 137 484 110 511 82 539 z "},"z":{"ha":1092,"x_min":0,"x_max":0,"o":"m 682 629 l 309 254 l 145 254 l 54 163 l 54 0 l 876 0 l 1038 163 l 1038 367 l 884 367 l 771 254 l 666 254 l 979 568 l 979 734 l 54 734 l 54 480 l 454 480 b 642 669 580 606 517 543 z "},"{":{"ha":587,"x_min":0,"x_max":0,"o":"m 420 839 l 532 954 l 532 1112 l 328 1112 l 167 946 l 167 628 b 54 513 92 551 130 590 l 54 345 l 167 230 l 167 -88 l 328 -254 l 532 -254 l 532 -96 b 420 19 457 -20 494 -58 l 420 337 l 330 429 b 420 521 389 490 359 460 z "},"|":{"ha":345,"x_min":0,"x_max":0,"o":"m 54 1031 l 54 -254 l 290 -254 l 290 1031 z "},"}":{"ha":586,"x_min":0,"x_max":0,"o":"m 167 839 l 167 521 b 257 429 227 460 197 490 l 167 337 l 167 19 l 54 -96 l 54 -254 l 258 -254 l 420 -88 l 420 230 b 532 345 494 307 457 268 l 532 513 b 420 628 457 590 494 551 l 420 946 l 258 1112 l 54 1112 l 54 954 b 167 839 130 878 92 916 z "},"~":{"ha":987,"x_min":0,"x_max":0,"o":"m 613 386 b 541 458 565 435 589 410 l 208 458 l 54 304 l 54 254 l 301 254 l 374 327 l 446 254 l 779 254 b 932 409 881 357 829 306 l 932 458 l 685 458 z "},"¡":{"ha":361,"x_min":0,"x_max":0,"o":"m 54 -254 l 307 -254 l 307 0 l 252 480 l 110 480 l 54 0 z m 307 734 l 54 734 l 54 572 l 307 572 z "},"¢":{"ha":1092,"x_min":0,"x_max":0,"o":"m 307 480 l 441 480 l 441 254 l 284 254 b 146 393 192 347 238 300 l 186 435 l 292 328 l 307 328 z m 521 480 l 571 480 l 571 254 l 521 254 z m 651 480 l 701 480 l 813 367 l 1038 367 l 1038 572 l 876 734 l 651 734 l 651 948 l 571 948 l 571 734 l 521 734 l 521 948 l 441 948 l 441 734 l 54 734 l 54 567 l 137 484 l 54 400 l 54 167 l 220 0 l 441 0 l 441 -214 l 521 -214 l 521 0 l 571 0 l 571 -214 l 651 -214 l 651 0 l 1038 0 l 1038 254 l 651 254 z "},"£":{"ha":1092,"x_min":0,"x_max":0,"o":"m 383 254 l 383 422 l 897 422 l 897 503 l 383 503 l 383 734 l 279 839 l 319 880 l 465 734 l 735 734 l 735 642 l 897 642 l 988 734 l 988 987 l 329 987 l 130 788 l 130 503 l 54 503 l 54 422 l 130 422 l 130 254 l 54 254 l 54 0 l 1038 0 l 1038 254 z "},"₤":{"ha":1092,"x_min":0,"x_max":0,"o":"m 383 254 l 383 357 l 897 357 l 897 437 l 383 437 l 383 488 l 897 488 l 897 568 l 383 568 l 383 734 l 279 839 l 319 880 b 465 734 416 783 368 831 l 735 734 l 735 642 l 897 642 l 988 734 l 988 987 l 329 987 l 130 788 l 130 568 l 54 568 l 54 488 l 130 488 l 130 437 l 54 437 l 54 357 l 130 357 l 130 254 l 54 254 l 54 0 l 1038 0 l 1038 254 z "},"₣":{"ha":1092,"x_min":0,"x_max":0,"o":"m 947 367 l 1038 458 l 1038 621 l 411 621 l 334 543 l 293 584 b 442 734 393 684 342 634 l 947 734 l 1038 825 l 1038 987 l 338 987 l 176 825 l 176 604 l 285 494 l 176 385 l 176 243 l 54 243 l 54 163 l 176 163 l 176 0 l 429 0 l 429 163 l 644 163 l 644 243 l 429 243 l 429 279 l 516 367 z "},"€":{"ha":1092,"x_min":0,"x_max":0,"o":"m 383 254 l 383 389 l 947 389 l 947 469 l 383 469 l 383 519 l 947 519 l 947 600 l 383 600 l 383 734 l 279 839 l 319 880 l 465 734 l 947 734 l 1038 825 l 1038 987 l 329 987 l 130 788 l 130 600 l 54 600 l 54 519 l 130 519 l 130 469 l 54 469 l 54 389 l 130 389 l 130 200 l 329 0 l 1038 0 l 1038 163 l 947 254 z "},"¥":{"ha":1092,"x_min":0,"x_max":0,"o":"m 672 286 l 992 286 l 992 367 l 802 367 b 1038 604 959 525 881 446 l 1038 987 l 785 987 l 785 709 l 698 621 l 290 621 l 212 543 l 172 584 l 307 720 l 307 987 l 54 987 l 54 604 l 290 367 l 100 367 l 100 286 l 420 286 l 420 237 l 100 237 l 100 156 l 420 156 l 420 0 l 672 0 l 672 156 l 992 156 l 992 237 l 672 237 z "},"ß":{"ha":1092,"x_min":0,"x_max":0,"o":"m 697 621 l 511 621 l 420 530 l 420 367 l 802 367 l 880 445 l 920 404 l 771 254 l 420 254 l 420 0 l 876 0 l 1038 163 l 1038 385 l 928 494 l 1038 604 l 1038 825 l 876 987 l 216 987 l 54 825 l 54 -162 l 145 -162 l 307 0 l 307 734 l 785 734 l 785 709 z "},"Þ":{"ha":1092,"x_min":0,"x_max":0,"o":"m 307 0 l 307 140 l 394 227 l 788 227 l 1038 478 l 1038 848 l 307 848 l 307 987 l 54 987 l 54 464 b 163 355 127 391 91 427 l 54 245 l 54 0 z m 172 444 l 321 594 l 796 594 l 684 481 l 290 481 l 212 404 z "},"þ":{"ha":1092,"x_min":0,"x_max":0,"o":"m 307 -254 l 307 0 l 802 0 l 1038 237 l 1038 734 l 307 734 l 307 987 l 54 987 l 54 167 l 137 83 l 54 0 l 54 -254 z m 307 480 l 785 480 l 785 342 l 697 254 l 307 254 l 186 133 l 146 174 b 307 336 253 282 199 228 z "},"Ð":{"ha":1092,"x_min":0,"x_max":0,"o":"m 429 734 l 771 734 l 920 584 l 880 543 l 802 621 l 785 621 l 785 254 l 429 254 l 429 439 l 644 439 l 644 520 l 429 520 z m 176 0 l 876 0 l 1038 163 l 1038 385 l 928 494 l 1038 604 l 1038 825 l 876 987 l 176 987 l 176 520 l 54 520 l 54 439 l 176 439 z "},"ð":{"ha":1092,"x_min":0,"x_max":0,"o":"m 663 987 l 663 905 l 448 905 l 448 825 l 663 825 l 663 734 l 290 734 l 54 497 l 54 0 l 916 0 l 916 567 l 833 650 l 916 734 l 916 825 l 1038 825 l 1038 905 l 916 905 l 916 987 z m 663 254 l 307 254 l 307 392 l 394 480 l 663 480 l 784 601 l 825 560 l 663 398 z "},"§":{"ha":1092,"x_min":0,"x_max":0,"o":"m 216 0 l 697 0 l 785 -87 l 785 -113 l 54 -113 l 54 -367 l 876 -367 l 1038 -204 l 1038 18 l 928 127 l 1038 237 l 1038 458 b 876 621 930 567 983 513 l 394 621 l 307 709 l 307 734 l 1038 734 l 1038 987 l 216 987 l 54 825 l 54 604 b 163 494 127 530 91 567 l 54 385 l 54 163 z m 290 367 l 771 367 l 920 217 l 880 176 b 802 254 828 228 854 202 l 321 254 b 172 404 221 354 271 304 b 212 445 199 431 185 418 z "},"ı":{"ha":361,"x_min":0,"x_max":0,"o":"m 307 734 l 167 734 l 54 621 l 54 0 l 307 0 z "},"¨":{"ha":749,"x_min":0,"x_max":0,"o":"m 54 825 l 307 825 l 307 987 l 54 987 z m 442 825 l 694 825 l 694 987 l 442 987 z "},"·":{"ha":361,"x_min":0,"x_max":0,"o":"m 54 286 l 307 286 l 307 480 l 54 480 z "},"©":{"ha":1224,"x_min":0,"x_max":0,"o":"m 446 467 l 446 572 l 720 572 l 744 548 b 755 537 749 543 753 540 b 763 530 758 534 760 532 b 774 518 766 527 769 523 l 798 494 l 955 494 l 955 636 b 909 683 931 660 916 675 l 842 749 l 269 749 l 269 633 l 298 605 b 321 583 307 595 315 588 b 340 563 326 576 333 570 b 376 530 348 555 360 545 b 446 467 392 516 415 494 z m 430 415 b 376 469 402 443 385 461 l 299 547 l 269 517 l 269 355 l 385 238 l 955 238 l 955 415 z m 1087 494 b 1031 288 1087 418 1069 350 b 884 140 994 227 945 177 b 678 84 822 102 753 84 l 546 84 b 341 140 471 84 403 102 b 193 288 279 177 230 227 b 138 494 156 350 138 418 b 193 700 138 569 156 638 b 341 848 230 762 279 811 b 546 904 403 886 471 904 l 678 904 b 884 848 753 904 822 886 b 1031 700 945 811 994 762 b 1087 494 1069 638 1087 569 z m 54 494 b 121 246 54 404 77 321 b 299 67 165 171 224 111 b 546 0 374 22 456 0 l 678 0 b 926 67 768 0 851 22 b 1103 246 1000 111 1059 171 b 1170 494 1147 321 1170 404 b 1103 742 1170 585 1147 667 b 926 921 1059 817 1000 876 b 678 987 851 965 768 987 l 546 987 b 299 921 456 987 374 965 b 121 742 224 876 165 817 b 54 494 77 667 54 585 z "},"®":{"ha":886,"x_min":0,"x_max":0,"o":"m 413 589 l 570 433 l 653 433 l 653 502 l 556 600 l 653 696 l 653 855 l 302 855 l 232 785 l 232 690 l 279 644 l 232 597 l 232 433 l 340 433 l 340 552 l 378 589 z m 54 644 b 397 300 54 454 208 300 l 489 300 b 831 644 677 300 831 454 b 489 987 831 833 677 987 l 397 987 b 54 644 208 987 54 833 z m 772 644 b 489 359 772 488 644 359 l 397 359 b 113 644 241 359 113 488 b 397 928 113 800 241 928 l 489 928 b 772 644 644 928 772 800 z m 300 665 b 283 682 288 677 294 671 b 347 747 325 725 304 704 l 550 747 b 502 698 517 714 534 730 l 333 698 z "},"«":{"ha":1000,"x_min":0,"x_max":0,"o":"m 690 376 b 945 646 860 555 775 466 l 687 646 b 420 376 509 466 598 555 l 687 107 l 945 107 b 690 376 775 287 860 197 z m 323 376 b 579 646 494 555 408 466 l 321 646 l 54 376 l 321 107 l 579 107 b 323 376 408 287 494 197 z "},"»":{"ha":1000,"x_min":0,"x_max":0,"o":"m 310 376 l 54 107 l 312 107 l 579 376 l 312 646 l 54 646 z m 676 376 l 420 107 l 678 107 l 945 376 l 678 646 l 420 646 z "},"°":{"ha":545,"x_min":0,"x_max":0,"o":"m 360 857 l 360 740 l 184 740 l 184 857 z m 407 987 l 138 987 l 54 904 l 54 693 l 138 610 l 407 610 l 490 693 l 490 904 z "},"º":{"ha":748,"x_min":0,"x_max":0,"o":"m 521 814 l 521 580 l 540 580 l 587 627 l 606 609 l 515 519 l 227 519 l 227 753 l 208 753 l 161 706 l 142 724 l 232 814 z m 54 881 l 54 734 l 121 667 l 54 599 l 54 452 l 161 346 l 587 346 l 694 452 l 694 599 l 626 667 l 694 734 l 694 881 l 587 987 l 161 987 z "},"¹":{"ha":748,"x_min":0,"x_max":0,"o":"m 288 519 l 54 519 l 54 346 l 694 346 l 694 519 l 460 519 l 460 857 l 330 987 l 54 987 l 54 814 l 243 814 l 334 905 l 352 887 l 288 822 z "},"²":{"ha":748,"x_min":0,"x_max":0,"o":"m 469 753 l 208 753 l 54 599 l 54 346 l 694 346 l 694 519 l 232 519 l 142 609 l 161 627 l 208 580 l 540 580 l 694 734 l 694 881 b 587 987 623 952 658 916 l 54 987 l 54 814 l 521 814 l 521 806 b 469 753 486 771 504 789 z "},"³":{"ha":748,"x_min":0,"x_max":0,"o":"m 469 753 l 180 753 l 180 580 l 540 580 l 587 627 l 606 609 l 515 519 l 54 519 l 54 346 l 587 346 b 694 452 658 417 623 381 l 694 599 l 626 667 l 694 734 l 694 881 b 587 987 623 952 658 916 l 54 987 l 54 814 l 522 814 l 522 806 z "},"¸":{"ha":597,"x_min":0,"x_max":0,"o":"m 54 -96 l 54 -254 l 393 -254 l 543 -104 l 543 24 l 361 24 l 361 -33 l 298 -96 z "},"¿":{"ha":1092,"x_min":0,"x_max":0,"o":"m 1038 0 l 321 0 l 172 150 l 212 191 l 290 113 l 640 113 l 802 275 l 802 480 l 549 480 l 549 367 l 290 367 l 54 131 l 54 -92 l 216 -254 l 1038 -254 z m 802 734 l 549 734 l 549 572 l 802 572 z "},"À":{"ha":1092,"x_min":0,"x_max":0,"o":"m 785 0 l 1038 0 l 1038 385 l 928 494 l 1038 604 l 1038 825 l 876 987 l 389 987 l 54 652 l 54 0 l 307 0 l 307 367 l 785 367 z m 494 734 l 771 734 l 920 584 l 880 543 l 802 621 l 381 621 b 494 734 456 696 418 659 z m 757 1044 l 642 1206 l 382 1206 l 560 1044 z "},"Á":{"ha":1092,"x_min":0,"x_max":0,"o":"m 785 0 l 1038 0 l 1038 385 l 928 494 l 1038 604 l 1038 825 l 876 987 l 389 987 l 54 652 l 54 0 l 307 0 l 307 367 l 785 367 z m 494 734 l 771 734 l 920 584 l 880 543 l 802 621 l 381 621 b 494 734 456 696 418 659 z m 507 1044 l 704 1044 l 882 1206 l 622 1206 z "},"Â":{"ha":1092,"x_min":0,"x_max":0,"o":"m 785 0 l 1038 0 l 1038 385 l 928 494 l 1038 604 l 1038 825 l 876 987 l 389 987 l 54 652 l 54 0 l 307 0 l 307 367 l 785 367 z m 494 734 l 771 734 l 920 584 l 880 543 l 802 621 l 381 621 b 494 734 456 696 418 659 z m 887 1083 b 764 1206 805 1165 846 1124 l 500 1206 l 378 1083 l 378 1044 l 574 1044 l 632 1102 l 690 1044 l 887 1044 z "},"Ã":{"ha":1092,"x_min":0,"x_max":0,"o":"m 785 0 l 1038 0 l 1038 385 l 928 494 l 1038 604 l 1038 825 l 876 987 l 389 987 l 54 652 l 54 0 l 307 0 l 307 367 l 785 367 z m 494 734 l 771 734 l 920 584 l 880 543 l 802 621 l 381 621 b 494 734 456 696 418 659 z m 728 1148 l 670 1206 l 406 1206 b 283 1083 324 1124 365 1165 l 283 1044 l 480 1044 l 537 1101 l 595 1044 l 859 1044 l 981 1166 l 981 1206 l 785 1206 b 728 1148 747 1168 766 1187 z "},"Ä":{"ha":1092,"x_min":0,"x_max":0,"o":"m 785 0 l 1038 0 l 1038 385 l 928 494 l 1038 604 l 1038 825 l 876 987 l 389 987 l 54 652 l 54 0 l 307 0 l 307 367 l 785 367 z m 494 734 l 771 734 l 920 584 l 880 543 l 802 621 l 381 621 b 494 734 456 696 418 659 z m 312 1044 l 565 1044 l 565 1206 l 312 1206 z m 700 1044 l 952 1044 l 952 1206 l 700 1206 z "},"Å":{"ha":1092,"x_min":0,"x_max":0,"o":"m 785 0 l 1038 0 l 1038 385 l 928 494 l 1038 604 l 1038 825 l 876 987 l 389 987 l 54 652 l 54 0 l 307 0 l 307 367 l 785 367 z m 494 734 l 771 734 l 920 584 l 880 543 l 802 621 l 381 621 b 494 734 456 696 418 659 z m 633 1264 b 488 1142 561 1264 488 1214 l 488 1118 b 633 996 488 1046 561 996 b 777 1118 705 996 777 1046 l 777 1142 b 633 1264 777 1215 705 1264 z m 633 1184 b 683 1120 677 1183 683 1156 b 633 1076 683 1096 661 1076 b 581 1120 605 1076 581 1096 l 581 1139 b 633 1184 581 1164 605 1184 z "},"Æ":{"ha":1832,"x_min":0,"x_max":0,"o":"m 1687 254 l 1048 254 l 1048 279 l 1135 367 l 1778 367 l 1778 621 l 1030 621 l 953 543 l 912 584 l 1061 734 l 1687 734 l 1778 825 l 1778 987 l 389 987 l 54 652 l 54 0 l 307 0 l 307 367 l 795 367 l 795 163 l 956 0 l 1778 0 l 1778 163 z m 381 621 l 494 734 l 795 734 l 795 621 z "},"Ç":{"ha":1092,"x_min":0,"x_max":0,"o":"m 785 734 l 785 621 l 1038 621 l 1038 987 l 216 987 l 54 825 l 54 604 l 163 494 l 54 385 l 54 163 l 216 0 l 565 0 l 565 -33 l 501 -96 l 258 -96 l 258 -254 l 597 -254 l 747 -104 l 747 0 l 1038 0 l 1038 254 l 307 254 l 307 621 l 290 621 l 212 543 l 172 584 b 321 734 271 684 221 634 z "},"È":{"ha":1092,"x_min":0,"x_max":0,"o":"m 1038 367 l 1038 621 l 290 621 l 212 543 l 172 584 b 321 734 271 684 221 634 l 947 734 l 1038 825 l 1038 987 l 216 987 l 54 825 l 54 604 b 163 494 127 530 91 567 l 54 385 l 54 163 l 216 0 l 1038 0 l 1038 163 l 947 254 l 307 254 l 307 279 l 394 367 z m 671 1044 l 556 1206 l 296 1206 l 474 1044 z "},"É":{"ha":1092,"x_min":0,"x_max":0,"o":"m 1038 367 l 1038 621 l 290 621 l 212 543 l 172 584 b 321 734 271 684 221 634 l 947 734 l 1038 825 l 1038 987 l 216 987 l 54 825 l 54 604 b 163 494 127 530 91 567 l 54 385 l 54 163 l 216 0 l 1038 0 l 1038 163 l 947 254 l 307 254 l 307 279 l 394 367 z m 421 1044 l 618 1044 l 795 1206 l 536 1206 z "},"Ê":{"ha":1092,"x_min":0,"x_max":0,"o":"m 1038 367 l 1038 621 l 290 621 l 212 543 l 172 584 b 321 734 271 684 221 634 l 947 734 l 1038 825 l 1038 987 l 216 987 l 54 825 l 54 604 b 163 494 127 530 91 567 l 54 385 l 54 163 l 216 0 l 1038 0 l 1038 163 l 947 254 l 307 254 l 307 279 l 394 367 z m 801 1083 b 678 1206 719 1165 760 1124 l 414 1206 l 292 1083 l 292 1044 l 488 1044 l 546 1102 l 604 1044 l 801 1044 z "},"Ë":{"ha":1092,"x_min":0,"x_max":0,"o":"m 1038 367 l 1038 621 l 290 621 l 212 543 l 172 584 b 321 734 271 684 221 634 l 947 734 l 1038 825 l 1038 987 l 216 987 l 54 825 l 54 604 b 163 494 127 530 91 567 l 54 385 l 54 163 l 216 0 l 1038 0 l 1038 163 l 947 254 l 307 254 l 307 279 l 394 367 z m 226 1044 l 479 1044 l 479 1206 l 226 1206 z m 614 1044 l 866 1044 l 866 1206 l 614 1206 z "},"Ì":{"ha":1092,"x_min":0,"x_max":0,"o":"m 1038 734 l 1038 987 l 672 987 l 573 888 l 473 987 l 54 987 l 54 734 l 338 734 l 483 880 l 524 839 l 420 734 l 420 254 l 54 254 l 54 0 l 1038 0 l 1038 254 l 672 254 l 672 734 z m 671 1044 l 556 1206 l 296 1206 l 474 1044 z "},"Í":{"ha":1092,"x_min":0,"x_max":0,"o":"m 1038 734 l 1038 987 l 672 987 l 573 888 l 473 987 l 54 987 l 54 734 l 338 734 l 483 880 l 524 839 l 420 734 l 420 254 l 54 254 l 54 0 l 1038 0 l 1038 254 l 672 254 l 672 734 z m 421 1044 l 618 1044 l 795 1206 l 536 1206 z "},"Î":{"ha":1092,"x_min":0,"x_max":0,"o":"m 1038 734 l 1038 987 l 672 987 l 573 888 l 473 987 l 54 987 l 54 734 l 338 734 l 483 880 l 524 839 l 420 734 l 420 254 l 54 254 l 54 0 l 1038 0 l 1038 254 l 672 254 l 672 734 z m 801 1083 b 678 1206 719 1165 760 1124 l 414 1206 l 292 1083 l 292 1044 l 488 1044 l 546 1102 l 604 1044 l 801 1044 z "},"Ï":{"ha":1092,"x_min":0,"x_max":0,"o":"m 1038 734 l 1038 987 l 672 987 l 573 888 l 473 987 l 54 987 l 54 734 l 338 734 l 483 880 l 524 839 l 420 734 l 420 254 l 54 254 l 54 0 l 1038 0 l 1038 254 l 672 254 l 672 734 z m 226 1044 l 479 1044 l 479 1206 l 226 1206 z m 614 1044 l 866 1044 l 866 1206 l 614 1206 z "},"Ñ":{"ha":1092,"x_min":0,"x_max":0,"o":"m 336 987 l 54 987 l 54 0 l 307 0 l 307 657 l 785 177 l 785 0 l 1038 0 l 1038 283 l 928 392 l 1038 501 l 1038 987 l 785 987 l 785 618 l 920 482 l 880 441 z m 642 1148 l 584 1206 l 320 1206 b 197 1083 238 1124 279 1165 l 197 1044 l 394 1044 l 451 1101 l 509 1044 l 772 1044 l 895 1166 l 895 1206 l 699 1206 b 642 1148 661 1168 680 1187 z "},"Ò":{"ha":1092,"x_min":0,"x_max":0,"o":"m 785 734 l 785 254 l 307 254 l 307 621 l 290 621 l 212 543 l 172 584 b 321 734 271 684 221 634 z m 876 0 l 1038 163 l 1038 987 l 216 987 l 54 825 l 54 604 b 163 494 127 530 91 567 l 54 385 l 54 0 z m 746 1044 l 631 1206 l 372 1206 l 549 1044 z "},"Ó":{"ha":1092,"x_min":0,"x_max":0,"o":"m 785 734 l 785 254 l 307 254 l 307 621 l 290 621 l 212 543 l 172 584 b 321 734 271 684 221 634 z m 876 0 l 1038 163 l 1038 987 l 216 987 l 54 825 l 54 604 b 163 494 127 530 91 567 l 54 385 l 54 0 z m 496 1044 l 693 1044 l 871 1206 l 611 1206 z "},"Ô":{"ha":1092,"x_min":0,"x_max":0,"o":"m 785 734 l 785 254 l 307 254 l 307 621 l 290 621 l 212 543 l 172 584 b 321 734 271 684 221 634 z m 876 0 l 1038 163 l 1038 987 l 216 987 l 54 825 l 54 604 b 163 494 127 530 91 567 l 54 385 l 54 0 z m 876 1083 b 753 1206 794 1165 835 1124 l 490 1206 l 367 1083 l 367 1044 l 564 1044 l 621 1102 l 680 1044 l 876 1044 z "},"Õ":{"ha":1092,"x_min":0,"x_max":0,"o":"m 785 734 l 785 254 l 307 254 l 307 621 l 290 621 l 212 543 l 172 584 b 321 734 271 684 221 634 z m 876 0 l 1038 163 l 1038 987 l 216 987 l 54 825 l 54 604 b 163 494 127 530 91 567 l 54 385 l 54 0 z m 717 1148 l 659 1206 l 395 1206 b 273 1083 313 1124 354 1165 l 273 1044 l 469 1044 l 526 1101 l 584 1044 l 848 1044 l 970 1166 l 970 1206 l 774 1206 b 717 1148 736 1168 755 1187 z "},"Ö":{"ha":1092,"x_min":0,"x_max":0,"o":"m 785 734 l 785 254 l 307 254 l 307 621 l 290 621 l 212 543 l 172 584 b 321 734 271 684 221 634 z m 876 0 l 1038 163 l 1038 987 l 216 987 l 54 825 l 54 604 b 163 494 127 530 91 567 l 54 385 l 54 0 z m 301 1044 l 554 1044 l 554 1206 l 301 1206 z m 689 1044 l 941 1044 l 941 1206 l 689 1206 z "},"Ø":{"ha":1092,"x_min":0,"x_max":0,"o":"m 785 734 l 785 254 l 486 254 l 698 734 z m 607 734 l 394 254 l 307 254 l 307 621 l 290 621 l 212 543 l 172 584 l 321 734 z m 331 -95 l 373 0 l 876 0 l 1038 163 l 1038 987 l 810 987 l 852 1083 l 761 1083 b 719 987 733 1019 747 1051 l 216 987 l 54 825 l 54 604 l 163 494 l 54 385 l 54 0 l 282 0 l 240 -95 z "},"Œ":{"ha":1822,"x_min":0,"x_max":0,"o":"m 321 734 l 785 734 l 785 604 l 894 494 l 785 385 l 785 254 l 307 254 l 307 621 l 290 621 l 212 543 l 172 584 z m 54 0 l 785 0 b 911 127 869 85 827 43 l 1038 0 l 1768 0 l 1768 163 l 1677 254 l 1038 254 l 1038 279 l 1125 367 l 1768 367 l 1768 621 l 1020 621 l 943 543 l 902 584 l 1051 734 l 1677 734 l 1768 825 l 1768 987 l 1038 987 b 911 861 954 903 996 945 l 785 987 l 216 987 l 54 825 l 54 604 l 163 494 l 54 385 z "},"Ù":{"ha":1092,"x_min":0,"x_max":0,"o":"m 785 254 l 321 254 l 172 404 b 212 445 199 431 185 418 l 290 367 l 307 367 l 307 987 l 54 987 l 54 604 l 163 494 l 54 385 l 54 163 l 216 0 l 1038 0 l 1038 987 l 785 987 z m 671 1044 l 556 1206 l 296 1206 l 474 1044 z "},"Ú":{"ha":1092,"x_min":0,"x_max":0,"o":"m 785 254 l 321 254 l 172 404 b 212 445 199 431 185 418 l 290 367 l 307 367 l 307 987 l 54 987 l 54 604 l 163 494 l 54 385 l 54 163 l 216 0 l 1038 0 l 1038 987 l 785 987 z m 421 1044 l 618 1044 l 795 1206 l 536 1206 z "},"Û":{"ha":1092,"x_min":0,"x_max":0,"o":"m 785 254 l 321 254 l 172 404 b 212 445 199 431 185 418 l 290 367 l 307 367 l 307 987 l 54 987 l 54 604 l 163 494 l 54 385 l 54 163 l 216 0 l 1038 0 l 1038 987 l 785 987 z m 801 1083 b 678 1206 719 1165 760 1124 l 414 1206 l 292 1083 l 292 1044 l 488 1044 l 546 1102 l 604 1044 l 801 1044 z "},"Ü":{"ha":1092,"x_min":0,"x_max":0,"o":"m 785 254 l 321 254 l 172 404 b 212 445 199 431 185 418 l 290 367 l 307 367 l 307 987 l 54 987 l 54 604 l 163 494 l 54 385 l 54 163 l 216 0 l 1038 0 l 1038 987 l 785 987 z m 226 1044 l 479 1044 l 479 1206 l 226 1206 z m 614 1044 l 866 1044 l 866 1206 l 614 1206 z "},"Ý":{"ha":1092,"x_min":0,"x_max":0,"o":"m 802 367 l 1038 604 l 1038 987 l 785 987 l 785 709 l 697 621 l 290 621 l 212 543 l 172 584 l 307 720 l 307 987 l 54 987 l 54 604 l 290 367 l 420 367 l 420 0 l 672 0 l 672 367 z m 421 1044 l 618 1044 l 795 1206 l 536 1206 z "},"Ÿ":{"ha":1092,"x_min":0,"x_max":0,"o":"m 802 367 l 1038 604 l 1038 987 l 785 987 l 785 709 l 697 621 l 290 621 l 212 543 l 172 584 l 307 720 l 307 987 l 54 987 l 54 604 l 290 367 l 420 367 l 420 0 l 672 0 l 672 367 z m 226 1044 l 479 1044 l 479 1206 l 226 1206 z m 614 1044 l 866 1044 l 866 1206 l 614 1206 z "},"Ž":{"ha":1092,"x_min":0,"x_max":0,"o":"m 698 621 l 290 621 l 54 385 l 54 0 l 1038 0 l 1038 254 l 321 254 l 172 404 l 212 445 l 290 367 l 802 367 l 1038 604 l 1038 987 l 54 987 l 54 734 l 785 734 l 785 709 z m 800 1166 l 800 1206 l 604 1206 b 546 1147 566 1167 585 1187 b 488 1206 507 1187 527 1167 l 292 1206 l 292 1166 l 414 1044 l 678 1044 z "},"Š":{"ha":1092,"x_min":0,"x_max":0,"o":"m 1038 734 l 1038 987 l 216 987 l 54 825 l 54 604 l 290 367 l 698 367 l 785 279 l 785 254 l 321 254 l 208 367 l 54 367 l 54 163 l 216 0 l 1038 0 l 1038 385 l 802 621 l 290 621 l 212 543 l 172 584 l 321 734 z m 800 1166 l 800 1206 l 604 1206 b 546 1147 566 1167 585 1187 b 488 1206 507 1187 527 1167 l 292 1206 l 292 1166 l 414 1044 l 678 1044 z "},"à":{"ha":1092,"x_min":0,"x_max":0,"o":"m 307 406 l 292 406 b 186 300 222 335 257 370 l 146 340 l 285 480 l 785 480 l 562 254 l 307 254 z m 54 0 l 654 0 l 785 132 l 785 0 l 1038 0 l 1038 734 l 220 734 l 54 567 l 54 334 l 137 250 l 54 167 z m 748 838 l 633 1000 l 374 1000 l 551 838 z "},"á":{"ha":1092,"x_min":0,"x_max":0,"o":"m 307 406 l 292 406 b 186 300 222 335 257 370 l 146 340 l 285 480 l 785 480 l 562 254 l 307 254 z m 54 0 l 654 0 l 785 132 l 785 0 l 1038 0 l 1038 734 l 220 734 l 54 567 l 54 334 l 137 250 l 54 167 z m 498 838 l 695 838 l 873 1000 l 613 1000 z "},"â":{"ha":1092,"x_min":0,"x_max":0,"o":"m 307 406 l 292 406 b 186 300 222 335 257 370 l 146 340 l 285 480 l 785 480 l 562 254 l 307 254 z m 54 0 l 654 0 l 785 132 l 785 0 l 1038 0 l 1038 734 l 220 734 l 54 567 l 54 334 l 137 250 l 54 167 z m 878 877 b 755 1000 796 959 837 918 l 492 1000 l 369 877 l 369 838 l 566 838 l 623 896 l 682 838 l 878 838 z "},"ã":{"ha":1092,"x_min":0,"x_max":0,"o":"m 307 406 l 292 406 b 186 300 222 335 257 370 l 146 340 l 285 480 l 785 480 l 562 254 l 307 254 z m 54 0 l 654 0 l 785 132 l 785 0 l 1038 0 l 1038 734 l 220 734 l 54 567 l 54 334 l 137 250 l 54 167 z m 719 942 l 661 1000 l 397 1000 b 275 877 315 918 356 959 l 275 838 l 471 838 l 528 895 l 586 838 l 850 838 l 972 960 l 972 1000 l 776 1000 b 719 942 738 962 757 981 z "},"ä":{"ha":1092,"x_min":0,"x_max":0,"o":"m 307 406 l 292 406 b 186 300 222 335 257 370 l 146 340 l 285 480 l 785 480 l 562 254 l 307 254 z m 54 0 l 654 0 l 785 132 l 785 0 l 1038 0 l 1038 734 l 220 734 l 54 567 l 54 334 l 137 250 l 54 167 z m 303 838 l 556 838 l 556 1000 l 303 1000 z m 691 838 l 943 838 l 943 1000 l 691 1000 z "},"å":{"ha":1092,"x_min":0,"x_max":0,"o":"m 307 406 l 292 406 b 186 300 222 335 257 370 l 146 340 l 285 480 l 785 480 l 562 254 l 307 254 z m 54 0 l 654 0 l 785 132 l 785 0 l 1038 0 l 1038 734 l 220 734 l 54 567 l 54 334 l 137 250 l 54 167 z m 625 1058 b 479 936 552 1058 479 1008 l 479 912 b 625 789 479 840 552 789 b 768 912 696 789 768 840 l 768 936 b 625 1058 768 1008 696 1058 z m 624 978 b 674 914 668 977 674 949 b 624 869 674 890 652 870 b 572 914 596 869 572 890 l 572 933 b 624 978 572 958 596 978 z "},"æ":{"ha":1822,"x_min":0,"x_max":0,"o":"m 307 406 l 292 406 l 186 300 l 146 340 l 285 480 l 785 480 l 562 254 l 307 254 z m 1038 254 l 1038 406 l 1023 406 b 917 300 952 335 987 370 l 876 340 l 1015 480 l 1411 480 l 1185 254 z m 1544 254 l 1768 480 l 1768 734 l 220 734 l 54 567 l 54 334 l 137 250 l 54 167 l 54 0 l 654 0 l 785 132 l 785 0 l 1768 0 l 1768 254 z "},"ç":{"ha":1092,"x_min":0,"x_max":0,"o":"m 269 -96 l 269 -254 l 608 -254 l 758 -104 l 758 0 l 1038 0 l 1038 254 l 284 254 l 146 393 l 186 435 l 292 328 l 307 328 l 307 480 l 701 480 l 813 367 l 1038 367 l 1038 572 b 876 734 930 680 984 625 l 54 734 l 54 567 l 137 484 b 54 400 82 428 110 456 l 54 167 l 220 0 l 576 0 l 576 -33 b 512 -96 533 -75 555 -54 z "},"è":{"ha":1092,"x_min":0,"x_max":0,"o":"m 307 254 l 307 406 l 292 406 b 186 300 222 335 257 370 l 146 340 l 284 480 l 680 480 b 455 254 530 330 605 405 z m 812 254 b 1038 480 962 405 888 330 l 1038 734 l 220 734 l 54 567 l 54 334 l 137 250 l 54 167 l 54 0 l 1038 0 l 1038 254 z m 748 838 l 633 1000 l 374 1000 l 551 838 z "},"é":{"ha":1092,"x_min":0,"x_max":0,"o":"m 307 254 l 307 406 l 292 406 b 186 300 222 335 257 370 l 146 340 l 284 480 l 680 480 b 455 254 530 330 605 405 z m 812 254 b 1038 480 962 405 888 330 l 1038 734 l 220 734 l 54 567 l 54 334 l 137 250 l 54 167 l 54 0 l 1038 0 l 1038 254 z m 498 838 l 695 838 l 873 1000 l 613 1000 z "},"ê":{"ha":1092,"x_min":0,"x_max":0,"o":"m 307 254 l 307 406 l 292 406 b 186 300 222 335 257 370 l 146 340 l 284 480 l 680 480 b 455 254 530 330 605 405 z m 812 254 b 1038 480 962 405 888 330 l 1038 734 l 220 734 l 54 567 l 54 334 l 137 250 l 54 167 l 54 0 l 1038 0 l 1038 254 z m 878 877 b 755 1000 796 959 837 918 l 492 1000 l 369 877 l 369 838 l 566 838 l 623 896 l 682 838 l 878 838 z "},"ë":{"ha":1092,"x_min":0,"x_max":0,"o":"m 307 254 l 307 406 l 292 406 b 186 300 222 335 257 370 l 146 340 l 284 480 l 680 480 b 455 254 530 330 605 405 z m 812 254 b 1038 480 962 405 888 330 l 1038 734 l 220 734 l 54 567 l 54 334 l 137 250 l 54 167 l 54 0 l 1038 0 l 1038 254 z m 303 838 l 556 838 l 556 1000 l 303 1000 z m 691 838 l 943 838 l 943 1000 l 691 1000 z "},"ì":{"ha":483,"x_min":0,"x_max":0,"o":"m 412 734 l 272 734 l 159 621 l 159 0 l 412 0 z m 429 838 l 314 1000 l 54 1000 l 232 838 z "},"í":{"ha":483,"x_min":0,"x_max":0,"o":"m 338 734 l 198 734 l 85 621 l 85 0 l 338 0 z m 54 838 l 251 838 l 429 1000 l 169 1000 z "},"î":{"ha":618,"x_min":0,"x_max":0,"o":"m 435 734 l 295 734 l 182 621 l 182 0 l 435 0 z m 564 878 b 441 1000 481 960 522 918 l 177 1000 l 54 878 l 54 838 l 251 838 l 309 897 l 367 838 l 564 838 z "},"ï":{"ha":749,"x_min":0,"x_max":0,"o":"m 504 734 l 363 734 l 251 621 l 251 0 l 504 0 z m 54 838 l 307 838 l 307 1000 l 54 1000 z m 442 838 l 694 838 l 694 1000 l 442 1000 z "},"ñ":{"ha":1092,"x_min":0,"x_max":0,"o":"m 54 0 l 307 0 l 307 480 l 808 480 l 946 340 l 905 300 b 800 406 835 370 870 335 l 785 406 l 785 0 l 1038 0 l 1038 167 l 955 250 l 1038 334 l 1038 567 l 871 734 l 54 734 z m 642 942 l 584 1000 l 320 1000 b 197 877 238 918 279 959 l 197 838 l 394 838 l 451 895 l 509 838 l 772 838 l 895 960 l 895 1000 l 699 1000 b 642 942 661 962 680 981 z "},"ò":{"ha":1092,"x_min":0,"x_max":0,"o":"m 307 254 l 307 406 l 292 406 b 186 300 222 335 257 370 l 146 340 l 285 480 l 785 480 l 785 338 l 701 254 z m 1038 734 l 220 734 l 54 567 l 54 334 l 137 250 l 54 167 l 54 0 l 876 0 l 1038 163 z m 671 838 l 556 1000 l 296 1000 l 474 838 z "},"ó":{"ha":1092,"x_min":0,"x_max":0,"o":"m 307 254 l 307 406 l 292 406 b 186 300 222 335 257 370 l 146 340 l 285 480 l 785 480 l 785 338 l 701 254 z m 1038 734 l 220 734 l 54 567 l 54 334 l 137 250 l 54 167 l 54 0 l 876 0 l 1038 163 z m 421 838 l 618 838 l 795 1000 l 536 1000 z "},"ô":{"ha":1092,"x_min":0,"x_max":0,"o":"m 307 254 l 307 406 l 292 406 b 186 300 222 335 257 370 l 146 340 l 285 480 l 785 480 l 785 338 l 701 254 z m 1038 734 l 220 734 l 54 567 l 54 334 l 137 250 l 54 167 l 54 0 l 876 0 l 1038 163 z m 801 877 b 678 1000 719 959 760 918 l 414 1000 l 292 877 l 292 838 l 488 838 l 546 896 l 604 838 l 801 838 z "},"õ":{"ha":1092,"x_min":0,"x_max":0,"o":"m 307 254 l 307 406 l 292 406 b 186 300 222 335 257 370 l 146 340 l 285 480 l 785 480 l 785 338 l 701 254 z m 1038 734 l 220 734 l 54 567 l 54 334 l 137 250 l 54 167 l 54 0 l 876 0 l 1038 163 z m 642 942 l 584 1000 l 320 1000 b 197 877 238 918 279 959 l 197 838 l 394 838 l 451 895 l 509 838 l 772 838 l 895 960 l 895 1000 l 699 1000 b 642 942 661 962 680 981 z "},"ö":{"ha":1092,"x_min":0,"x_max":0,"o":"m 307 254 l 307 406 l 292 406 b 186 300 222 335 257 370 l 146 340 l 285 480 l 785 480 l 785 338 l 701 254 z m 1038 734 l 220 734 l 54 567 l 54 334 l 137 250 l 54 167 l 54 0 l 876 0 l 1038 163 z m 226 838 l 479 838 l 479 1000 l 226 1000 z m 614 838 l 866 838 l 866 1000 l 614 1000 z "},"ø":{"ha":1092,"x_min":0,"x_max":0,"o":"m 541 254 l 641 480 l 785 480 l 785 338 l 701 254 z m 450 254 l 307 254 l 307 406 l 292 406 b 186 300 222 335 257 370 l 146 340 l 285 480 l 550 480 z m 429 0 l 876 0 l 1038 163 l 1038 734 l 753 734 l 852 958 l 761 958 l 662 734 l 220 734 l 54 567 l 54 334 l 137 250 l 54 167 l 54 0 l 338 0 l 240 -220 l 331 -220 z "},"œ":{"ha":1822,"x_min":0,"x_max":0,"o":"m 307 254 l 307 406 l 292 406 l 186 300 l 146 340 l 284 480 l 785 480 l 785 338 l 701 254 z m 1038 254 l 1038 406 l 1023 406 b 917 300 952 335 987 370 l 876 340 l 1015 480 l 1411 480 l 1185 254 z m 1768 734 l 220 734 l 54 567 l 54 334 l 137 250 l 54 167 l 54 0 l 654 0 l 785 132 l 785 0 l 1768 0 l 1768 254 l 1544 254 l 1768 480 z "},"ù":{"ha":1092,"x_min":0,"x_max":0,"o":"m 1038 734 l 785 734 l 785 254 l 284 254 b 145 393 192 347 238 300 l 186 435 b 292 328 257 363 222 399 l 307 328 l 307 734 l 54 734 l 54 567 b 137 484 110 511 82 539 l 54 400 l 54 167 l 220 0 l 1038 0 z m 671 838 l 556 1000 l 296 1000 l 474 838 z "},"ú":{"ha":1092,"x_min":0,"x_max":0,"o":"m 1038 734 l 785 734 l 785 254 l 284 254 b 145 393 192 347 238 300 l 186 435 b 292 328 257 363 222 399 l 307 328 l 307 734 l 54 734 l 54 567 b 137 484 110 511 82 539 l 54 400 l 54 167 l 220 0 l 1038 0 z m 421 838 l 618 838 l 795 1000 l 536 1000 z "},"û":{"ha":1092,"x_min":0,"x_max":0,"o":"m 1038 734 l 785 734 l 785 254 l 284 254 b 145 393 192 347 238 300 l 186 435 b 292 328 257 363 222 399 l 307 328 l 307 734 l 54 734 l 54 567 b 137 484 110 511 82 539 l 54 400 l 54 167 l 220 0 l 1038 0 z m 801 877 b 678 1000 719 959 760 918 l 414 1000 l 292 877 l 292 838 l 488 838 l 546 896 l 604 838 l 801 838 z "},"ü":{"ha":1092,"x_min":0,"x_max":0,"o":"m 1038 734 l 785 734 l 785 254 l 284 254 b 145 393 192 347 238 300 l 186 435 b 292 328 257 363 222 399 l 307 328 l 307 734 l 54 734 l 54 567 b 137 484 110 511 82 539 l 54 400 l 54 167 l 220 0 l 1038 0 z m 226 838 l 479 838 l 479 1000 l 226 1000 z m 614 838 l 866 838 l 866 1000 l 614 1000 z "},"ý":{"ha":1092,"x_min":0,"x_max":0,"o":"m 54 400 l 54 167 l 220 0 l 634 0 l 785 153 l 785 71 b 630 -84 682 -33 733 19 l 630 -254 l 819 -254 l 1038 -34 l 1038 734 l 785 734 l 785 480 l 561 254 l 284 254 b 145 393 192 347 238 300 l 186 435 b 292 328 257 363 222 399 l 307 328 l 307 734 l 54 734 l 54 567 b 137 484 110 511 82 539 z m 421 838 l 618 838 l 795 1000 l 536 1000 z "},"ÿ":{"ha":1092,"x_min":0,"x_max":0,"o":"m 54 400 l 54 167 l 220 0 l 634 0 l 785 153 l 785 71 b 630 -84 682 -33 733 19 l 630 -254 l 819 -254 l 1038 -34 l 1038 734 l 785 734 l 785 480 l 561 254 l 284 254 b 145 393 192 347 238 300 l 186 435 b 292 328 257 363 222 399 l 307 328 l 307 734 l 54 734 l 54 567 b 137 484 110 511 82 539 z m 226 838 l 479 838 l 479 1000 l 226 1000 z m 614 838 l 866 838 l 866 1000 l 614 1000 z "},"š":{"ha":1092,"x_min":0,"x_max":0,"o":"m 1038 480 l 1038 734 l 278 734 l 113 568 l 426 254 l 321 254 l 208 367 l 54 367 l 54 163 l 216 0 l 1038 0 l 1038 254 l 783 254 l 411 627 l 452 669 l 640 480 z m 800 960 l 800 1000 l 604 1000 b 546 941 566 961 585 981 b 488 1000 507 981 527 961 l 292 1000 l 292 960 l 414 838 l 678 838 z "},"ž":{"ha":1092,"x_min":0,"x_max":0,"o":"m 682 629 l 309 254 l 145 254 l 54 163 l 54 0 l 876 0 l 1038 163 l 1038 367 l 884 367 l 771 254 l 666 254 l 979 568 l 979 734 l 54 734 l 54 480 l 454 480 b 642 669 580 606 517 543 z m 800 960 l 800 1000 l 604 1000 b 546 941 566 961 585 981 b 488 1000 507 981 527 961 l 292 1000 l 292 960 l 414 838 l 678 838 z "},"̀":{"ha":483,"x_min":0,"x_max":0,"o":"m 429 758 l 314 920 l 54 920 l 232 758 z "},"́":{"ha":483,"x_min":0,"x_max":0,"o":"m 54 758 l 251 758 l 429 920 l 169 920 z "},"̂":{"ha":618,"x_min":0,"x_max":0,"o":"m 564 797 b 441 920 481 879 522 838 l 177 920 l 54 797 l 54 758 l 251 758 l 309 816 l 367 758 l 564 758 z "},"̌":{"ha":617,"x_min":0,"x_max":0,"o":"m 563 880 l 563 920 l 367 920 b 309 861 328 881 347 901 b 251 920 270 901 290 881 l 54 920 l 54 880 l 177 758 l 441 758 z "},"̃":{"ha":806,"x_min":0,"x_max":0,"o":"m 498 862 l 441 920 l 177 920 b 54 797 95 838 136 879 l 54 758 l 251 758 l 308 815 l 366 758 l 629 758 l 752 880 l 752 920 l 555 920 b 498 862 517 882 536 901 z "},"̄":{"ha":640,"x_min":0,"x_max":0,"o":"m 54 758 l 586 758 l 586 920 l 54 920 z "},"̇":{"ha":361,"x_min":0,"x_max":0,"o":"m 54 758 l 307 758 l 307 920 l 54 920 z "},"̈":{"ha":749,"x_min":0,"x_max":0,"o":"m 54 758 l 307 758 l 307 920 l 54 920 z m 442 758 l 694 758 l 694 920 l 442 920 z "},"̊":{"ha":398,"x_min":0,"x_max":0,"o":"m 200 978 b 54 856 127 978 54 928 l 54 832 b 200 709 54 760 127 709 b 344 832 272 709 344 760 l 344 856 b 200 978 344 928 272 978 z m 199 898 b 250 834 243 897 250 869 b 199 789 250 810 227 790 b 148 834 172 789 148 810 l 148 853 b 199 898 148 878 172 898 z "},"̧":{"ha":597,"x_min":0,"x_max":0,"o":"m 54 -96 l 54 -254 l 393 -254 l 543 -104 l 543 24 l 361 24 l 361 -33 l 297 -96 z "},"–":{"ha":787,"x_min":0,"x_max":0,"o":"m 54 268 l 732 268 l 732 445 l 54 445 z "},"—":{"ha":1038,"x_min":0,"x_max":0,"o":"m 54 268 l 984 268 l 984 445 l 54 445 z "},"‘":{"ha":361,"x_min":0,"x_max":0,"o":"m 54 524 l 307 524 l 307 777 l 202 777 l 307 883 l 307 987 l 190 987 l 54 851 z "},"’":{"ha":361,"x_min":0,"x_max":0,"o":"m 307 987 l 54 987 l 54 734 l 159 734 l 54 629 l 54 524 l 172 524 l 307 660 z "},"‚":{"ha":361,"x_min":0,"x_max":0,"o":"m 307 254 l 54 254 l 54 0 l 159 0 l 54 -105 l 54 -210 l 172 -210 l 307 -74 z "},"“":{"ha":710,"x_min":0,"x_max":0,"o":"m 403 524 l 656 524 l 656 777 l 551 777 l 656 883 l 656 987 l 538 987 b 403 851 448 897 494 942 z m 54 524 l 307 524 l 307 777 l 202 777 b 307 883 272 848 237 812 l 307 987 l 190 987 l 54 851 z "},"”":{"ha":710,"x_min":0,"x_max":0,"o":"m 307 987 l 54 987 l 54 734 l 159 734 l 54 629 l 54 524 l 172 524 l 307 660 z m 656 987 l 403 987 l 403 734 l 508 734 b 403 629 438 663 473 699 l 403 524 l 520 524 l 656 660 z "},"„":{"ha":710,"x_min":0,"x_max":0,"o":"m 307 254 l 54 254 l 54 0 l 159 0 l 54 -105 l 54 -210 l 172 -210 l 307 -74 z m 656 254 l 403 254 l 403 0 l 508 0 l 403 -105 l 403 -210 l 520 -210 l 656 -74 z "},"†":{"ha":665,"x_min":0,"x_max":0,"o":"m 221 987 l 221 669 l 54 669 l 54 479 l 221 479 l 221 0 l 444 0 l 444 479 l 611 479 l 611 669 l 444 669 l 444 987 z "},"•":{"ha":430,"x_min":0,"x_max":0,"o":"m 54 259 l 376 259 l 376 507 l 54 507 z "},"‹":{"ha":633,"x_min":0,"x_max":0,"o":"m 323 376 l 579 646 l 321 646 l 54 376 l 321 107 l 579 107 z "},"›":{"ha":633,"x_min":0,"x_max":0,"o":"m 310 376 l 54 107 l 312 107 l 579 376 l 312 646 l 54 646 z "},"⁄":{"ha":779,"x_min":0,"x_max":0,"o":"m 491 987 l 54 0 l 288 0 l 725 987 z "},"∕":{"ha":779,"x_min":0,"x_max":0,"o":"m 491 987 l 54 0 l 288 0 l 725 987 z "},"−":{"ha":753,"x_min":0,"x_max":0,"o":"m 54 254 l 699 254 l 699 459 l 54 459 z "},"÷":{"ha":814,"x_min":0,"x_max":0,"o":"m 320 185 l 494 185 l 494 348 l 320 348 z m 54 402 l 760 402 l 760 586 l 54 586 z m 320 640 l 494 640 l 494 802 l 320 802 z "},"×":{"ha":730,"x_min":0,"x_max":0,"o":"m 177 182 l 365 371 l 553 182 l 675 305 l 488 494 l 675 683 l 553 806 l 365 617 l 177 806 l 54 683 l 242 494 l 54 305 z "},"≤":{"ha":739,"x_min":0,"x_max":0,"o":"m 330 620 l 684 766 l 684 962 l 54 687 l 54 553 l 684 277 l 684 473 z m 54 25 l 684 25 l 684 209 l 54 209 z "},"≥":{"ha":739,"x_min":0,"x_max":0,"o":"m 409 620 l 54 473 l 54 277 b 684 553 474 461 264 369 l 684 687 l 54 962 l 54 766 z m 684 25 l 684 209 l 54 209 l 54 25 z "}}}
